<svg width="48" height="48" viewBox="0 0 48 48" fill="none" xmlns="http://www.w3.org/2000/svg">
<path d="M39 29C36.1587 34.3182 36.5139 37.2727 39 42" stroke="#152C58" stroke-width="3" stroke-linecap="round" stroke-linejoin="round"/>
<path d="M10 29C12.8413 34.3182 12.4861 37.2727 10 42" stroke="#152C58" stroke-width="3" stroke-linecap="round" stroke-linejoin="round"/>
<path d="M34 29C31.1587 34.3182 31.5139 37.2727 34 42" stroke="#152C58" stroke-width="3" stroke-linecap="round" stroke-linejoin="round"/>
<path d="M15 29C17.8413 34.3182 17.4861 37.2727 15 42" stroke="#152C58" stroke-width="3" stroke-linecap="round" stroke-linejoin="round"/>
<path d="M1.5 8C1.5 6.61929 2.61929 5.5 4 5.5H44C45.3807 5.5 46.5 6.61929 46.5 8V22C46.5 23.3807 45.3807 24.5 44 24.5H4C2.61929 24.5 1.5 23.3807 1.5 22V8Z" stroke="#152C58" stroke-width="3"/>
<path d="M0 19C15.3333 19 30.6667 19 46 19" stroke="#152C58" stroke-width="3" stroke-linecap="round" stroke-linejoin="round"/>
<path d="M28 12C25.3333 12 22.6667 12 20 12" stroke="#FF498B" stroke-width="3" stroke-linecap="round" stroke-linejoin="round"/>
</svg>
