<svg width="48" height="48" viewBox="0 0 48 48" fill="none" xmlns="http://www.w3.org/2000/svg">
<path d="M4.51133 20.2094C4.85161 19.1886 5.80696 18.5 6.88304 18.5H40.5971C41.6281 18.5 42.5534 19.133 42.9271 20.0939L44.4826 24.0939C45.12 25.7327 43.911 27.5 42.1526 27.5H5.54971C3.84331 27.5 2.63839 25.8283 3.178 24.2094L4.51133 20.2094Z" stroke="#152C58" stroke-width="3"/>
<path d="M16 14C16 15.3333 16 16.6667 16 18" stroke="#152C58" stroke-width="3" stroke-linecap="round" stroke-linejoin="round"/>
<path d="M32 14C32 15.3333 32 16.6667 32 18" stroke="#152C58" stroke-width="3" stroke-linecap="round" stroke-linejoin="round"/>
<mask id="path-4-inside-1" fill="white">
<path d="M7.5 45C5.567 45 4 43.433 4 41.5L4 28C4 27.4477 4.44771 27 5 27L10 27C10.5523 27 11 27.4477 11 28L11 41.5C11 43.433 9.433 45 7.5 45Z"/>
</mask>
<path d="M7.5 45C5.567 45 4 43.433 4 41.5L4 28C4 27.4477 4.44771 27 5 27L10 27C10.5523 27 11 27.4477 11 28L11 41.5C11 43.433 9.433 45 7.5 45Z" stroke="#152C58" stroke-width="6" mask="url(#path-4-inside-1)"/>
<mask id="path-5-inside-2" fill="white">
<path d="M40.5 45C38.567 45 37 43.433 37 41.5L37 28C37 27.4477 37.4477 27 38 27L43 27C43.5523 27 44 27.4477 44 28L44 41.5C44 43.433 42.433 45 40.5 45Z"/>
</mask>
<path d="M40.5 45C38.567 45 37 43.433 37 41.5L37 28C37 27.4477 37.4477 27 38 27L43 27C43.5523 27 44 27.4477 44 28L44 41.5C44 43.433 42.433 45 40.5 45Z" stroke="#152C58" stroke-width="6" mask="url(#path-5-inside-2)"/>
<mask id="path-6-inside-3" fill="white">
<path d="M16 14C13.7909 14 12 12.2091 12 10L12 5C12 4.44772 12.4477 4 13 4L19 4C19.5523 4 20 4.44771 20 5L20 10C20 12.2091 18.2091 14 16 14Z"/>
</mask>
<path d="M16 14C13.7909 14 12 12.2091 12 10L12 5C12 4.44772 12.4477 4 13 4L19 4C19.5523 4 20 4.44771 20 5L20 10C20 12.2091 18.2091 14 16 14Z" stroke="#FF498B" stroke-width="6" mask="url(#path-6-inside-3)"/>
<mask id="path-7-inside-4" fill="white">
<path d="M32 14C29.7909 14 28 12.2091 28 10L28 5C28 4.44772 28.4477 4 29 4L35 4C35.5523 4 36 4.44771 36 5L36 10C36 12.2091 34.2091 14 32 14Z"/>
</mask>
<path d="M32 14C29.7909 14 28 12.2091 28 10L28 5C28 4.44772 28.4477 4 29 4L35 4C35.5523 4 36 4.44771 36 5L36 10C36 12.2091 34.2091 14 32 14Z" stroke="#FF498B" stroke-width="6" mask="url(#path-7-inside-4)"/>
</svg>
