<svg width="48" height="48" viewBox="0 0 48 48" fill="none" xmlns="http://www.w3.org/2000/svg">
<path d="M42 19C42 14.7555 42 10.511 42 6.26645C42 5.4337 41.484 4.68809 40.7047 4.39469L38.1672 3.43942C37.4528 3.17047 36.6477 3.33161 36.0918 3.85477L34 5.82353" stroke="#FF498B" stroke-width="3" stroke-linecap="round" stroke-linejoin="round"/>
<path d="M1.5 23C1.5 21.6193 2.61929 20.5 4 20.5H44C45.3807 20.5 46.5 21.6193 46.5 23V25C46.5 26.3807 45.3807 27.5 44 27.5H4C2.61929 27.5 1.5 26.3807 1.5 25V23Z" stroke="#152C58" stroke-width="3"/>
<path d="M5.5 27.5H41.5V38C41.5 39.933 39.933 41.5 38 41.5H9C7.067 41.5 5.5 39.933 5.5 38V27.5Z" stroke="#152C58" stroke-width="3"/>
<path d="M10 42C10 43.3333 10 44.6667 10 46" stroke="#152C58" stroke-width="3" stroke-linecap="round" stroke-linejoin="round"/>
<path d="M37 42C37 43.3333 37 44.6667 37 46" stroke="#152C58" stroke-width="3" stroke-linecap="round" stroke-linejoin="round"/>
</svg>
