<svg width="48" height="48" viewBox="0 0 48 48" fill="none" xmlns="http://www.w3.org/2000/svg">
<path d="M30.5 39.5C30.5 41.0205 29.3144 42.749 26.61 44.1857C23.9714 45.5875 20.2228 46.5 16 46.5C11.7772 46.5 8.02859 45.5875 5.39002 44.1857C2.6856 42.749 1.5 41.0205 1.5 39.5C1.5 37.9795 2.6856 36.251 5.39002 34.8143C8.02859 33.4125 11.7772 32.5 16 32.5C20.2228 32.5 23.9714 33.4125 26.61 34.8143C29.3144 36.251 30.5 37.9795 30.5 39.5Z" stroke="#152C58" stroke-width="3"/>
<path d="M26.5 10.75C26.5 13.5078 25.2022 21.4104 23.0472 28.6748C21.9738 32.2933 20.7184 35.645 19.3627 38.062C18.6832 39.2735 18.0178 40.1782 17.3934 40.7626C16.7661 41.3497 16.3064 41.5 16 41.5C15.6936 41.5 15.2339 41.3497 14.6066 40.7626C13.9822 40.1782 13.3168 39.2735 12.6373 38.062C11.2816 35.645 10.0262 32.2933 8.95278 28.6748C6.79781 21.4104 5.5 13.5078 5.5 10.75C5.5 5.79228 10.0416 1.5 16 1.5C21.9584 1.5 26.5 5.79228 26.5 10.75Z" fill="white" stroke="#152C58" stroke-width="3"/>
<circle cx="16" cy="16" r="4.5" stroke="#FF498B" stroke-width="3"/>
</svg>
