<svg width="47" height="48" viewBox="0 0 47 48" fill="none" xmlns="http://www.w3.org/2000/svg">
<path d="M0.5 29C0.5 27.6193 1.61929 26.5 3 26.5H19C20.3807 26.5 21.5 27.6193 21.5 29V35C21.5 36.3807 20.3807 37.5 19 37.5H3C1.61929 37.5 0.5 36.3807 0.5 35V29Z" stroke="#152C58" stroke-width="3"/>
<path d="M4 38C4 40.6667 4 43.3333 4 46" stroke="#152C58" stroke-width="3" stroke-linecap="round" stroke-linejoin="round"/>
<path d="M18 38C18 40.6667 18 43.3333 18 46" stroke="#152C58" stroke-width="3" stroke-linecap="round" stroke-linejoin="round"/>
<path d="M18 38C18 40.6667 18 43.3333 18 46" stroke="#152C58" stroke-width="3" stroke-linecap="round" stroke-linejoin="round"/>
<path d="M11 15C11 18.6667 11 22.3333 11 26" stroke="#152C58" stroke-width="3" stroke-linecap="round" stroke-linejoin="round"/>
<path d="M11 15C11 18.6667 11 22.3333 11 26" stroke="#152C58" stroke-width="3" stroke-linecap="round" stroke-linejoin="round"/>
<path d="M15 15C15 15.6667 15 16.3333 15 17" stroke="#152C58" stroke-width="3" stroke-linecap="round" stroke-linejoin="round"/>
<path d="M5.74245 2.87275C5.80025 2.6531 5.99885 2.5 6.22599 2.5H15.774C16.0011 2.5 16.1997 2.65309 16.2576 2.87275L18.8891 12.8728C18.9726 13.1898 18.7334 13.5 18.4056 13.5H3.59441C3.26657 13.5 3.02744 13.1898 3.11087 12.8728L5.74245 2.87275Z" stroke="#FF498B" stroke-width="3"/>
</svg>
