<svg width="30" height="29" viewBox="0 0 30 29" fill="none" xmlns="http://www.w3.org/2000/svg">
<path d="M14.0489 1.67705C14.3483 0.755738 15.6517 0.75574 15.951 1.67705L18.6483 9.97847C18.7822 10.3905 19.1661 10.6695 19.5994 10.6695H28.328C29.2967 10.6695 29.6995 11.9091 28.9158 12.4785L21.8542 17.609C21.5037 17.8637 21.357 18.315 21.4909 18.7271L24.1882 27.0285C24.4876 27.9498 23.4331 28.7159 22.6494 28.1465L15.5877 23.016C15.2373 22.7613 14.7627 22.7613 14.4122 23.016L7.35056 28.1465C6.56685 28.7159 5.51237 27.9498 5.81172 27.0285L8.50902 18.7271C8.64289 18.315 8.49624 17.8637 8.14575 17.609L1.08413 12.4785C0.300421 11.9091 0.703198 10.6695 1.67192 10.6695H10.4006C10.8338 10.6695 11.2177 10.3905 11.3516 9.97847L14.0489 1.67705Z" fill="#FFCC47"/>
</svg>
